<?xml version="1.0" encoding="UTF-8" standalone="no"?>
<!-- Created with Inkscape (http://www.inkscape.org/) -->

<svg
   xmlns:dc="http://purl.org/dc/elements/1.1/"
   xmlns:cc="http://creativecommons.org/ns#"
   xmlns:rdf="http://www.w3.org/1999/02/22-rdf-syntax-ns#"
   xmlns:svg="http://www.w3.org/2000/svg"
   xmlns="http://www.w3.org/2000/svg"
   xmlns:xlink="http://www.w3.org/1999/xlink"
   xmlns:sodipodi="http://sodipodi.sourceforge.net/DTD/sodipodi-0.dtd"
   xmlns:inkscape="http://www.inkscape.org/namespaces/inkscape"
   width="210mm"
   height="297mm"
   viewBox="0 0 744.09448819 1052.3622047"
   id="svg4298"
   version="1.1"
   inkscape:version="0.91 r"
   sodipodi:docname="cloud_deployment.svg"
   inkscape:export-filename="/home/tw-johns/dev/Presentations/qgis_users_roadnet_talk/images/cloud_deployment_all.png"
   inkscape:export-xdpi="120"
   inkscape:export-ydpi="120">
  <defs
     id="defs4300">
    <clipPath
       id="clipPath4144"
       clipPathUnits="userSpaceOnUse">
      <rect
         transform="matrix(0.99990096,-0.01407388,0.01407388,0.99990096,0,0)"
         y="646.18127"
         x="565.16125"
         height="39.625"
         width="42.875"
         id="rect4146"
         style="fill:#000000;stroke:none" />
    </clipPath>
    <linearGradient
       id="linearGradient5342-4-9-7">
      <stop
         id="stop5344-0-0-6"
         offset="0"
         style="stop-color:#0d4100;stop-opacity:1;" />
      <stop
         id="stop5346-85-9-0"
         offset="1"
         style="stop-color:#129300;stop-opacity:1;" />
    </linearGradient>
    <linearGradient
       id="linearGradient5342-4-0-4">
      <stop
         id="stop5344-0-9-7"
         offset="0"
         style="stop-color:#0d1d00;stop-opacity:1;" />
      <stop
         id="stop5346-85-5-3"
         offset="1"
         style="stop-color:#0d7200;stop-opacity:1;" />
    </linearGradient>
    <clipPath
       id="clipPath4825-8"
       clipPathUnits="userSpaceOnUse">
      <path
         inkscape:export-ydpi="300"
         inkscape:export-xdpi="300"
         inkscape:export-filename="/home/webmaster/Desktop/path3895-6-6-7-4-4-0_2.png"
         inkscape:connector-curvature="0"
         id="path4827-5"
         d="m 485.06341,446.7935 c -9.77401,0.51743 -17.5625,8.97625 -17.5625,19.3125 0,10.66968 8.28361,19.3125 18.5,19.3125 1.1046,0 2.16736,-0.11879 3.21875,-0.3125 l 0,3.09375 c 0.085,1.31607 1.67268,4.12266 6.65625,4.15625 5.76986,0.0389 8.44866,-3.49777 8.9375,-4.5625 0.90942,-2.43008 0.73396,-3.98858 0.6875,-4.96875 -0.019,0.58818 -1.99576,4.1014 -5.09375,4.21875 -4.98011,0.18864 -4.4375,-0.71244 -4.4375,-2.03125 l 0,-2.625 c 5.12836,-3.43242 8.53125,-9.44688 8.53125,-16.28125 0,-10.66968 -8.28361,-19.3125 -18.5,-19.3125 C 485.68165,446.7935 485.3787,446.7768 485.06341,446.7935 z m 0.625,1.375 c 3.87037,0 7,7.86055 7,17.59375 0,2.16342 -0.15449,4.24122 -0.4375,6.15625 -1.61816,-0.66461 -3.68163,-1.19682 -6.1875,-1.1875 -3.70225,0.0138 -5.98672,0.85933 -6.875,1.46875 -0.3101,-1.99278 -0.5,-4.16771 -0.5,-6.4375 C 478.68841,456.02905 481.81804,448.1685 485.68841,448.1685 z m -1.28125,23.46875 c 3.73877,0.0637 4.8125,1.51573 4.8125,2.28125 l 0,7.0625 c -1.03594,1.52517 -2.24316,2.40625 -3.53125,2.40625 -2.82374,0 -5.23629,-4.19827 -6.34375,-10.25 C 480.23849,472.49987 482.04501,471.59702 484.40716,471.63725 Z"
         style="fill:#e4f363;fill-opacity:1;stroke:none" />
    </clipPath>
    <linearGradient
       id="linearGradient2795">
      <stop
         id="stop2797"
         offset="0"
         style="stop-color:#b8b8b8;stop-opacity:0.49803922" />
      <stop
         id="stop2799"
         offset="1"
         style="stop-color:#7f7f7f;stop-opacity:0" />
    </linearGradient>
    <linearGradient
       id="linearGradient2787">
      <stop
         id="stop2789"
         offset="0"
         style="stop-color:#7f7f7f;stop-opacity:0.5" />
      <stop
         id="stop2791"
         offset="1"
         style="stop-color:#7f7f7f;stop-opacity:0" />
    </linearGradient>
    <linearGradient
       id="linearGradient3676">
      <stop
         id="stop3678"
         offset="0"
         style="stop-color:#b2b2b2;stop-opacity:0.5" />
      <stop
         id="stop3680"
         offset="1"
         style="stop-color:#b3b3b3;stop-opacity:0" />
    </linearGradient>
    <linearGradient
       id="linearGradient3236">
      <stop
         id="stop3244"
         offset="0"
         style="stop-color:#f4f4f4;stop-opacity:1" />
      <stop
         id="stop3240"
         offset="1"
         style="stop-color:#ffffff;stop-opacity:1" />
    </linearGradient>
    <linearGradient
       id="linearGradient4671">
      <stop
         id="stop4673"
         offset="0"
         style="stop-color:#ffd43b;stop-opacity:1" />
      <stop
         id="stop4675"
         offset="1"
         style="stop-color:#ffe873;stop-opacity:1" />
    </linearGradient>
    <linearGradient
       id="linearGradient4689">
      <stop
         id="stop4691"
         offset="0"
         style="stop-color:#5a9fd4;stop-opacity:1" />
      <stop
         id="stop4693"
         offset="1"
         style="stop-color:#306998;stop-opacity:1" />
    </linearGradient>
    <linearGradient
       gradientTransform="translate(100.2702,99.61116)"
       gradientUnits="userSpaceOnUse"
       xlink:href="#linearGradient4671"
       id="linearGradient2987"
       y2="144.75717"
       x2="-65.308502"
       y1="144.75717"
       x1="224.23996" />
    <linearGradient
       gradientTransform="translate(100.2702,99.61116)"
       gradientUnits="userSpaceOnUse"
       xlink:href="#linearGradient4689"
       id="linearGradient2990"
       y2="76.313133"
       x2="26.670298"
       y1="77.475983"
       x1="172.94208" />
    <linearGradient
       gradientTransform="matrix(0.562541,0,0,0.567972,-11.5974,-7.60954)"
       gradientUnits="userSpaceOnUse"
       xlink:href="#linearGradient4671"
       id="linearGradient2255"
       y2="144.75717"
       x2="-65.308502"
       y1="144.75717"
       x1="224.23996" />
    <linearGradient
       gradientTransform="matrix(0.562541,0,0,0.567972,-11.5974,-7.60954)"
       gradientUnits="userSpaceOnUse"
       xlink:href="#linearGradient4689"
       id="linearGradient2258"
       y2="76.313133"
       x2="26.670298"
       y1="76.176224"
       x1="172.94208" />
    <radialGradient
       gradientTransform="matrix(1,0,0,0.177966,0,108.7434)"
       gradientUnits="userSpaceOnUse"
       xlink:href="#linearGradient2795"
       id="radialGradient2801"
       fy="132.28575"
       fx="61.518883"
       r="29.036913"
       cy="132.28575"
       cx="61.518883" />
    <linearGradient
       gradientTransform="matrix(0.562541,0,0,0.567972,-9.399749,-5.305317)"
       gradientUnits="userSpaceOnUse"
       xlink:href="#linearGradient4671"
       id="linearGradient1475"
       y2="137.27299"
       x2="112.03144"
       y1="192.35176"
       x1="150.96111" />
    <linearGradient
       gradientTransform="matrix(0.562541,0,0,0.567972,-9.399749,-5.305317)"
       gradientUnits="userSpaceOnUse"
       xlink:href="#linearGradient4689"
       id="linearGradient1478"
       y2="114.39767"
       x2="135.66525"
       y1="20.603781"
       x1="26.648937" />
    <radialGradient
       gradientTransform="matrix(2.382716e-8,-0.296405,1.43676,4.683673e-7,-128.544,150.5202)"
       gradientUnits="userSpaceOnUse"
       xlink:href="#linearGradient2795"
       id="radialGradient1480"
       fy="132.28575"
       fx="61.518883"
       r="29.036913"
       cy="132.28575"
       cx="61.518883" />
    <radialGradient
       gradientTransform="matrix(2.382716e-8,-0.296405,1.43676,4.683673e-7,-128.544,150.5202)"
       gradientUnits="userSpaceOnUse"
       xlink:href="#linearGradient2795"
       id="radialGradient1480-3"
       fy="132.28575"
       fx="61.518883"
       r="29.036913"
       cy="132.28575"
       cx="61.518883" />
    <marker
       inkscape:stockid="Arrow1Send"
       orient="auto"
       refY="0"
       refX="0"
       id="Arrow1Send-2"
       style="overflow:visible"
       inkscape:isstock="true">
      <path
         inkscape:connector-curvature="0"
         id="path4945-5"
         d="M 0,0 5,-5 -12.5,0 5,5 0,0 Z"
         style="fill:#859900;fill-opacity:1;fill-rule:evenodd;stroke:#859900;stroke-width:1pt;stroke-opacity:1"
         transform="matrix(-0.2,0,0,-0.2,-1.2,0)" />
    </marker>
    <marker
       inkscape:stockid="Arrow1Send"
       orient="auto"
       refY="0"
       refX="0"
       id="Arrow1Send-2-6"
       style="overflow:visible"
       inkscape:isstock="true">
      <path
         inkscape:connector-curvature="0"
         id="path4945-5-4"
         d="M 0,0 5,-5 -12.5,0 5,5 0,0 Z"
         style="fill:#859900;fill-opacity:1;fill-rule:evenodd;stroke:#859900;stroke-width:1pt;stroke-opacity:1"
         transform="matrix(-0.2,0,0,-0.2,-1.2,0)" />
    </marker>
    <marker
       inkscape:stockid="Arrow1Send"
       orient="auto"
       refY="0"
       refX="0"
       id="Arrow1Send-2-9"
       style="overflow:visible"
       inkscape:isstock="true">
      <path
         inkscape:connector-curvature="0"
         id="path4945-5-5"
         d="M 0,0 5,-5 -12.5,0 5,5 0,0 Z"
         style="fill:#859900;fill-opacity:1;fill-rule:evenodd;stroke:#859900;stroke-width:1pt;stroke-opacity:1"
         transform="matrix(-0.2,0,0,-0.2,-1.2,0)" />
    </marker>
    <marker
       inkscape:stockid="Arrow1Send"
       orient="auto"
       refY="0"
       refX="0"
       id="Arrow1Send-2-93"
       style="overflow:visible"
       inkscape:isstock="true">
      <path
         inkscape:connector-curvature="0"
         id="path4945-5-57"
         d="M 0,0 5,-5 -12.5,0 5,5 0,0 Z"
         style="fill:#859900;fill-opacity:1;fill-rule:evenodd;stroke:#859900;stroke-width:1pt;stroke-opacity:1"
         transform="matrix(-0.2,0,0,-0.2,-1.2,0)" />
    </marker>
  </defs>
  <sodipodi:namedview
     id="base"
     pagecolor="#ffffff"
     bordercolor="#666666"
     borderopacity="1.0"
     inkscape:pageopacity="0.0"
     inkscape:pageshadow="2"
     inkscape:zoom="1.4"
     inkscape:cx="391.98066"
     inkscape:cy="841.41699"
     inkscape:document-units="px"
     inkscape:current-layer="layer1"
     showgrid="false"
     inkscape:window-width="1920"
     inkscape:window-height="1028"
     inkscape:window-x="0"
     inkscape:window-y="0"
     inkscape:window-maximized="1" />
  <metadata
     id="metadata4303">
    <rdf:RDF>
      <cc:Work
         rdf:about="">
        <dc:format>image/svg+xml</dc:format>
        <dc:type
           rdf:resource="http://purl.org/dc/dcmitype/StillImage" />
        <dc:title></dc:title>
      </cc:Work>
    </rdf:RDF>
  </metadata>
  <g
     inkscape:label="Layer 1"
     inkscape:groupmode="layer"
     id="layer1">
    <text
       xml:space="preserve"
       style="font-style:normal;font-variant:normal;font-weight:normal;font-stretch:normal;font-size:25px;line-height:125%;font-family:Lato;-inkscape-font-specification:Lato;letter-spacing:0px;word-spacing:0px;fill:#586e75;fill-opacity:1;stroke:none;stroke-width:1px;stroke-linecap:butt;stroke-linejoin:miter;stroke-opacity:1"
       x="3.3870051"
       y="50.586281"
       id="text4472"
       sodipodi:linespacing="125%"><tspan
         sodipodi:role="line"
         x="3.3870051"
         y="50.586281"
         style="font-size:40px"
         id="tspan14955">Commit code</tspan></text>
    <g
       id="g14728"
       transform="matrix(0.42589397,0,0,0.42589397,514.79505,83.851275)">
      <g
         id="g14231"
         inkscape:label="ink_ext_XXXXXX"
         transform="matrix(0.39753197,0,0,-0.39753197,215.56179,140.56621)">
        <g
           id="g14233"
           transform="scale(0.1,0.1)">
          <path
             d="m 924.973,742.875 -403.567,0 c -10.41,0 -18.855,-8.449 -18.855,-18.867 l 0,-197.305 c 0,-10.41 8.445,-18.887 18.855,-18.887 l 157.434,0 0,-245.136 c 0,0 -35.356,-12.051 -133.078,-12.051 -115.301,0 -276.367,42.133 -276.367,396.312 0,354.259 167.714,400.869 325.175,400.869 136.297,0 195.02,-24 232.383,-35.56 11.738,-3.6 22.598,8.09 22.598,18.51 l 45.019,190.64 c 0,4.87 -1.648,10.74 -7.207,14.73 -15.175,10.82 -107.746,62.62 -341.601,62.62 C 276.348,1298.75 0,1184.13 0,633.129 0,82.1094 316.395,0 583.02,0 c 220.757,0 354.683,94.3398 354.683,94.3398 5.52,3.0508 6.113,10.7622 6.113,14.3012 l 0,615.367 c 0,10.418 -8.433,18.867 -18.843,18.867"
             style="fill:#161312;fill-opacity:1;fill-rule:nonzero;stroke:none"
             id="path14235"
             inkscape:connector-curvature="0" />
          <path
             d="m 3004.75,1232.73 c 0,10.5 -8.32,18.97 -18.73,18.97 l -227.23,0 c -10.38,0 -18.82,-8.47 -18.82,-18.97 0,-0.05 0.06,-439.125 0.06,-439.125 l -354.19,0 0,439.125 c 0,10.5 -8.36,18.97 -18.75,18.97 l -227.22,0 c -10.34,0 -18.77,-8.47 -18.77,-18.97 l 0,-1189.0308 c 0,-10.4883 8.43,-19.0273 18.77,-19.0273 l 227.22,0 c 10.39,0 18.75,8.539 18.75,19.0273 l 0,508.5898 354.19,0 c 0,0 -0.62,-508.5507 -0.62,-508.5898 0,-10.4883 8.43,-19.0273 18.82,-19.0273 l 227.77,0 c 10.41,0 18.73,8.539 18.75,19.0273 l 0,1189.0308"
             style="fill:#161312;fill-opacity:1;fill-rule:nonzero;stroke:none"
             id="path14237"
             inkscape:connector-curvature="0" />
          <path
             d="m 1353.76,1076.7 c 0,81.82 -65.6,147.94 -146.53,147.94 -80.85,0 -146.5,-66.12 -146.5,-147.94 0,-81.735 65.65,-148.032 146.5,-148.032 80.93,0 146.53,66.297 146.53,148.032"
             style="fill:#161312;fill-opacity:1;fill-rule:nonzero;stroke:none"
             id="path14239"
             inkscape:connector-curvature="0" />
          <path
             d="m 1337.51,294.52 c 0,30.464 0,548.859 0,548.859 0,10.422 -8.41,18.941 -18.8,18.941 l -226.51,0 c -10.39,0 -19.69,-10.718 -19.69,-21.136 0,0 0,-660.454 0,-786.352 0,-23.1132 14.4,-29.9804 33.04,-29.9804 0,0 96.68,0 204.08,0 22.39,0 27.88,10.9882 27.88,30.3476 0,42.1524 0,207.2698 0,239.3208"
             style="fill:#161312;fill-opacity:1;fill-rule:nonzero;stroke:none"
             id="path14241"
             inkscape:connector-curvature="0" />
          <path
             d="m 3868.32,860.531 -225.49,0 c -10.34,0 -18.76,-8.523 -18.76,-19.011 l 0,-583.02 c 0,0 -57.28,-41.91 -138.59,-41.91 -81.3,0 -102.88,36.89 -102.88,116.5 0,79.707 0,508.43 0,508.43 0,10.488 -8.4,19.011 -18.75,19.011 l -228.85,0 c -10.33,0 -18.79,-8.523 -18.79,-19.011 0,0 0,-310.481 0,-546.93 0,-236.4611 131.79,-294.30875 313.09,-294.30875 148.73,0 268.65,82.16795 268.65,82.16795 0,0 5.71,-43.3008 8.29,-48.4375 2.59,-5.1211 9.32,-10.2929 16.59,-10.2929 l 145.59,0.6406 c 10.33,0 18.79,8.539 18.79,18.9804 l -0.07,798.1802 c 0,10.488 -8.43,19.011 -18.82,19.011"
             style="fill:#161312;fill-opacity:1;fill-rule:nonzero;stroke:none"
             id="path14243"
             inkscape:connector-curvature="0" />
          <path
             d="m 4395.67,217.309 c -78.21,2.382 -131.26,37.871 -131.26,37.871 l 0,376.543 c 0,0 52.34,32.078 116.55,37.812 81.2,7.274 159.44,-17.254 159.44,-210.957 0,-204.258 -35.31,-244.566 -144.73,-241.269 z m 88.94,669.933 c -128.07,0 -215.18,-57.14 -215.18,-57.14 l 0,402.628 c 0,10.5 -8.39,18.97 -18.75,18.97 l -227.87,0 c -10.36,0 -18.78,-8.47 -18.78,-18.97 l 0,-1189.0308 c 0,-10.4883 8.42,-19.0273 18.81,-19.0273 0.02,0 158.05,0 158.1,0 7.12,0 12.51,3.6679 16.49,10.0976 3.93,6.3907 9.6,54.8203 9.6,54.8203 0,0 93.18,-88.30074 269.57,-88.30074 207.08,0 325.84,105.04294 325.84,471.54694 0,366.512 -189.67,414.406 -317.83,414.406"
             style="fill:#161312;fill-opacity:1;fill-rule:nonzero;stroke:none"
             id="path14245"
             inkscape:connector-curvature="0" />
          <path
             d="m 1990.58,862.426 -170.45,0 c 0,0 -0.26,225.134 -0.26,225.184 0,8.52 -4.39,12.78 -14.24,12.78 l -232.28,0 c -9.03,0 -13.88,-3.97 -13.88,-12.65 l 0,-232.697 c 0,0 -116.4,-28.102 -124.27,-30.371 -7.84,-2.274 -13.61,-9.5 -13.61,-18.125 l 0,-146.227 c 0,-10.515 8.4,-18.996 18.79,-18.996 l 119.09,0 c 0,0 0,-152.941 0,-351.785 0,-261.289 183.28,-286.96087 306.96,-286.96087 56.51,0 124.11,18.15237 135.27,22.27347 6.75,2.4804 10.67,9.4687 10.67,17.0468 l 0.19,160.8636 c 0,10.488 -8.86,18.976 -18.84,18.976 -9.93,0 -35.34,-4.039 -61.5,-4.039 -83.72,0 -112.09,38.93 -112.09,89.317 0,50.351 -0.01,334.308 -0.01,334.308 l 170.46,0 c 10.39,0 18.8,8.481 18.8,18.996 l 0,183.16 c 0,10.497 -8.41,18.946 -18.8,18.946"
             style="fill:#161312;fill-opacity:1;fill-rule:nonzero;stroke:none"
             id="path14247"
             inkscape:connector-curvature="0" />
        </g>
      </g>
      <path
         d="m 166.45094,82.749334 c -18.11667,0 -32.80901,14.690333 -32.80901,32.813036 0,14.49494 9.40068,26.7943 22.43936,31.13513 1.64158,0.30013 2.23991,-0.71307 2.23991,-1.58325 0,-0.77954 -0.029,-2.84218 -0.0451,-5.57963 -9.1269,1.98208 -11.05258,-4.39924 -11.05258,-4.39924 -1.49252,-3.79092 -3.64379,-4.80009 -3.64379,-4.80009 -2.97924,-2.03445 0.2256,-1.99416 0.2256,-1.99416 3.29331,0.23164 5.02561,3.38202 5.02561,3.38202 2.92687,5.0136 7.68063,3.56532 9.5499,2.72535 0.29812,-2.11905 1.14606,-3.56532 2.0828,-4.38514 -7.28583,-0.8299 -14.94615,-3.64388 -14.94615,-16.21718 0,-3.58344 1.279,-6.51023 3.37791,-8.80452 -0.33841,-0.8299 -1.46432,-4.16559 0.32229,-8.683676 0,0 2.75363,-0.882266 9.02215,3.361877 2.61651,-0.727165 5.42445,-1.08974 8.21434,-1.10384 2.7878,0.0145 5.59365,0.376675 8.21434,1.10384 6.26449,-4.244143 9.01394,-3.361877 9.01394,-3.361877 1.7908,4.518086 0.66472,7.853776 0.32841,8.683676 2.10294,2.29429 3.37195,5.22108 3.37195,8.80452 0,12.60553 -7.67257,15.37923 -14.98047,16.19099 1.17635,1.0132 2.22589,3.01542 2.22589,6.07716 0,4.38515 -0.0403,7.92428 -0.0403,8.99992 0,0.87824 0.59221,1.89949 2.25602,1.57922 13.02853,-4.34889 22.42116,-16.63817 22.42116,-31.1311 0,-18.122703 -14.69235,-32.813036 -32.81498,-32.813036"
         style="fill:#1b1817;fill-opacity:1;fill-rule:evenodd;stroke:none"
         id="path14272"
         inkscape:connector-curvature="0" />
    </g>
    <g
       id="g14869"
       transform="translate(569.81113,393.23966)">
      <path
         style="fill:#201c1d;fill-rule:evenodd"
         id="path243"
         d="m 39.328125,18.156249 c -2.287,0 -4.84,0.88125 -5.375,3.78125 -0.057,0.308 0.14675,0.455 0.34375,0.5 l 2.34375,0.28125 c 0.217,-0.011 0.36425,-0.24675 0.40625,-0.46875 0.2,-0.998 1.0215,-1.46875 1.9375,-1.46875 0.495,0 1.05075,0.17 1.34375,0.625 0.336,0.507 0.3125,1.19625 0.3125,1.78125 l 0,0.34375 c -1.393,0.16 -3.22725,0.25675 -4.53125,0.84375 -1.505,0.669 -2.5625,2.03025 -2.5625,4.03125 0,2.564 1.57075,3.84375 3.59375,3.84375 1.708,0 2.65175,-0.40125 3.96875,-1.78125 0.437,0.65 0.577,0.945 1.375,1.625 0.178,0.096 0.4035,0.0865 0.5625,-0.0625 l 0,0.03125 c 0.48,-0.437 1.35275,-1.23425 1.84375,-1.65625 0.196,-0.164 0.153,-0.43325 0,-0.65625 -0.439,-0.622 -0.90625,-1.12425 -0.90625,-2.28125 l 0,-3.84375 c 0,-1.628 0.13775,-3.129 -1.03125,-4.25 -0.921,-0.907 -2.457,-1.21875 -3.625,-1.21875 z m 31.5,0 c -2.288,0 -4.839,0.88125 -5.375,3.78125 -0.057,0.308 0.14575,0.455 0.34375,0.5 l 2.34375,0.28125 c 0.217,-0.011 0.36525,-0.24675 0.40625,-0.46875 0.201,-0.998 1.0215,-1.46875 1.9375,-1.46875 0.496,0 1.05075,0.17 1.34375,0.625 0.335,0.507 0.28125,1.19625 0.28125,1.78125 l 0,0.34375 c -1.393,0.16 -3.196,0.25675 -4.5,0.84375 -1.506,0.669 -2.5625,2.03025 -2.5625,4.03125 0,2.564 1.57175,3.84375 3.59375,3.84375 1.706,0 2.64975,-0.40125 3.96875,-1.78125 0.435,0.65 0.577,0.945 1.375,1.625 0.179,0.096 0.4035,0.0865 0.5625,-0.0625 l 0,0.03125 c 0.481,-0.437 1.35275,-1.23425 1.84375,-1.65625 0.196,-0.164 0.151,-0.43325 0,-0.65625 -0.439,-0.622 -0.90625,-1.12425 -0.90625,-2.28125 l 0,-3.84375 c 0,-1.628 0.1055,-3.129 -1.0625,-4.25 -0.922,-0.907 -2.42575,-1.21875 -3.59375,-1.21875 z m -17.71875,0.125 c -1.478,0 -2.57425,0.74575 -3.15625,2.34375 l -0.03125,0 0,-1.65625 c -0.015,-0.231 -0.2035,-0.4255 -0.4375,-0.4375 l -2.25,0 c -0.255,0 -0.46875,0.21575 -0.46875,0.46875 l 0,12.65625 c 0.019,0.225 0.2085,0.4215 0.4375,0.4375 l 2.40625,0 c 0.257,0 0.46775,-0.21375 0.46875,-0.46875 l 0,-6.71875 c 0,-1.465 -0.07075,-3.46875 1.65625,-3.46875 1.705,0 1.46875,2.05875 1.46875,3.46875 l 0,6.71875 c 0,0.239 0.1955,0.45275 0.4375,0.46875 l 2.40625,0 c 0.256,0 0.46875,-0.21375 0.46875,-0.46875 l 0,-6.71875 c 0,-0.719 -0.02925,-1.76625 0.21875,-2.40625 0.247,-0.64 0.8535,-1.0625 1.4375,-1.0625 0.696,0 1.22725,0.24275 1.40625,1.09375 0.112,0.506 0.0625,1.843 0.0625,2.375 l 0,6.71875 c 0,0.239 0.1955,0.45275 0.4375,0.46875 l 2.40625,0 c 0.256,0 0.46875,-0.21375 0.46875,-0.46875 l 0,-8 c 0,-1.359 0.137,-2.90175 -0.625,-3.96875 -0.673,-0.958 -1.77325,-1.375 -2.78125,-1.375 -1.414,0 -2.7295,0.74575 -3.3125,2.34375 -0.673,-1.597 -1.622,-2.34375 -3.125,-2.34375 z m 40.90625,0 c -3.477,0 -5.40625,3.057 -5.40625,7 0,3.916 1.90825,7.0625 5.40625,7.0625 3.365,0 5.5,-3.0745 5.5,-6.9375 0,-3.994 -1.934,-7.125 -5.5,-7.125 z m 13.718755,0 c -1.661,0 -2.61025,0.8305 -3.28125,2.5625 l -0.0312,0 0,-1.9375 c -0.043,-0.196 -0.22751,-0.33175 -0.4375,-0.34375 l -2.21875,0 c -0.24201,0 -0.44675,0.17525 -0.46875,0.40625 l 0,12.65625 c 0,0.239 0.1965,0.45275 0.4375,0.46875 l 2.375,0 c 0.256,0 0.46474,-0.21275 0.46875,-0.46875 l 0,-6.8125 c 0,-0.854 0.0722,-1.63325 0.40625,-2.40625 0.269,-0.613 0.791,-1 1.375,-1 1.658,0 1.5,2.02025 1.5,3.40625 l 0,6.875 c 0.024,0.215 0.2175,0.39225 0.4375,0.40625 l 2.40625,0 c 0.23699,0 0.44074,-0.18025 0.46875,-0.40625 l 0,-7.96875 c 0,-1.225 0.003,-2.9265 -0.625,-3.9375 -0.673,-1.093 -1.7385,-1.5 -2.8125,-1.5 z m -28.875005,0.21875 c -0.244,0 -0.4365,0.19375 -0.4375,0.46875 l 0,1.8125 c 0.001,0.271 0.1875,0.46675 0.4375,0.46875 l 4.125,0 -4.71875,6.96875 c -0.288,0.449 -0.3125,0.958 -0.3125,1.25 l 0,1.84375 c 0,0.265 0.2885,0.55425 0.5625,0.40625 2.689,-1.468 5.91175,-1.33725 8.34375,-0.03125 0.295,0.161 0.59375,-0.14125 0.59375,-0.40625 l 0,-1.9375 c -0.024,-0.259 -0.1255,-0.5085 -0.4375,-0.6875 -1.38,-0.794 -2.982,-1.037 -4.5,-1 l 4.09375,-6 c 0.379,-0.539 0.59075,-0.864 0.59375,-1.125 l 0,-1.5625 c 0,-0.269 -0.1835,-0.46875 -0.4375,-0.46875 l -7.90625,0 z m 15.15625,2.375 c 0.762,0 1.32375,0.33975 1.59375,1.21875 0.313,1.013 0.34375,2.27775 0.34375,3.34375 0,1.624 -0.0755,4.3125 -1.9375,4.3125 -1.883,0 -1.875,-3.328 -1.875,-4.875 0,-1.543 0.104,-4 1.875,-4 z m -53.40625,4.625 0,0.53125 c 0,0.961 0.0345,1.77 -0.4375,2.625 -0.382,0.695 -0.98225,1.125 -1.65625,1.125 -0.92,0 -1.46875,-0.7465 -1.46875,-1.8125 0,-2.101 1.8255,-2.46875 3.5625,-2.46875 z m 31.5,0 0,0.53125 c 0,0.961 0.0345,1.77 -0.4375,2.625 -0.382,0.695 -0.97925,1.125 -1.65625,1.125 -0.921,0 -1.46875,-0.7465 -1.46875,-1.8125 0,-2.101 1.8235,-2.46875 3.5625,-2.46875 z"
         inkscape:connector-curvature="0" />
      <path
         id="path257"
         d="m 87.703125,32.499999 0,1.8125 1.21875,0 0,-1.8125 -1.21875,0 z m -35.34375,0.3125 0,12.90625 1.125,0 0,-1.15625 c 0.24,0.458 0.51275,0.80025 0.84375,1.03125 0.33,0.231 0.709,0.34375 1.125,0.34375 0.826,0 1.53925,-0.42225 2.15625,-1.28125 0.617,-0.859 0.9375,-2.1045 0.9375,-3.6875 0,-1.037 -0.13325,-1.897 -0.40625,-2.625 -0.273,-0.727 -0.63775,-1.267 -1.09375,-1.625 -0.456,-0.357 -0.97425,-0.5625 -1.53125,-0.5625 -0.398,0 -0.76975,0.1045 -1.09375,0.3125 -0.325,0.208 -0.58775,0.54675 -0.84375,0.96875 l 0,-4.625 -1.21875,0 z m 11.5625,3.03125 c -0.848,0 -1.521,0.251 -2,0.75 -0.479,0.498 -0.71875,1.1405 -0.71875,1.9375 0,0.463 0.10425,0.85475 0.28125,1.21875 0.177,0.364 0.431,0.658 0.75,0.875 0.32,0.217 0.95825,0.5015 1.90625,0.8125 0.656,0.211 1.04775,0.39025 1.21875,0.53125 0.248,0.205 0.375,0.47375 0.375,0.84375 0,0.428 -0.1485,0.7845 -0.4375,1.0625 -0.289,0.279 -0.69075,0.40625 -1.21875,0.40625 -0.528,0 -0.96225,-0.14775 -1.28125,-0.46875 -0.319,-0.321 -0.4905,-0.80875 -0.5625,-1.46875 l -1.21875,0.25 c 0.276,2.005 1.276,3.001 3,3 0.92,0 1.62425,-0.2605 2.15625,-0.8125 0.532,-0.552 0.8125,-1.2945 0.8125,-2.1875 0,-0.482 -0.085,-0.9 -0.25,-1.25 -0.165,-0.349 -0.3915,-0.6095 -0.6875,-0.8125 -0.297,-0.202 -0.95875,-0.4715 -1.96875,-0.8125 -0.734,-0.257 -1.1635,-0.4455 -1.3125,-0.5625 -0.249,-0.198 -0.375,-0.4675 -0.375,-0.8125 0,-0.351 0.116,-0.65 0.375,-0.875 0.259,-0.224 0.6585,-0.34375 1.1875,-0.34375 0.932,0 1.4525,0.51125 1.5625,1.53125 l 1.1875,-0.1875 c -0.082,-0.645 -0.2225,-1.154 -0.4375,-1.5 -0.215,-0.346 -0.5325,-0.63775 -0.9375,-0.84375 -0.406,-0.205 -0.87125,-0.28125 -1.40625,-0.28125 z m 7.46875,0 c -0.976,0 -1.8015,0.403 -2.4375,1.25 -0.637,0.847 -0.9375,2.0755 -0.9375,3.6875 0,1.553 0.3065,2.76975 0.9375,3.59375 0.631,0.823 1.44875,1.21875 2.46875,1.21875 0.81,0 1.48325,-0.243 2.03125,-0.75 0.549,-0.507 0.94725,-1.253 1.15625,-2.25 l -1.25,-0.21875 c -0.359,1.278 -1.0215,1.90425 -1.9375,1.90625 -0.584,0 -1.06075,-0.24825 -1.46875,-0.78125 -0.408,-0.534 -0.6385,-1.326 -0.6875,-2.375 l 5.375,0 0,-0.4375 c 0,-1.577 -0.3145,-2.76075 -0.9375,-3.59375 -0.624,-0.833 -1.3805,-1.25 -2.3125,-1.25 z m 7.40625,0 c -0.292,0 -0.54725,0.0985 -0.78125,0.3125 -0.234,0.214 -0.50025,0.6555 -0.78125,1.3125 l 0,-1.4375 -1.09375,0 0,9.34375 1.21875,0 0,-4.875 c 0,-0.68 0.06375,-1.3335 0.21875,-1.9375 0.088,-0.346 0.25375,-0.6195 0.46875,-0.8125 0.215,-0.193 0.45975,-0.28125 0.71875,-0.28125 0.287,0 0.572,0.11475 0.875,0.34375 l 0.40625,-1.46875 c -0.425,-0.34 -0.842,-0.5 -1.25,-0.5 z m 14.9375,0 c -0.965,0 -1.76,0.40675 -2.375,1.21875 -0.614,0.812 -0.9375,2.03225 -0.9375,3.65625 0,1.612 0.3285,2.83225 0.9375,3.65625 0.61,0.823 1.3705,1.21875 2.3125,1.21875 0.777,0 1.446,-0.289 2,-0.875 0.555,-0.586 0.89325,-1.4485 1.03125,-2.5625 l -1.1875,-0.1875 c -0.088,0.797 -0.296,1.37 -0.625,1.75 -0.329,0.378 -0.7245,0.5625 -1.1875,0.5625 -0.59,0 -1.09175,-0.27475 -1.46875,-0.84375 -0.377,-0.568 -0.5625,-1.478 -0.5625,-2.75 0,-1.232 0.19975,-2.1215 0.59375,-2.6875 0.394,-0.566 0.899,-0.875 1.5,-0.875 0.402,0 0.74525,0.15675 1.03125,0.46875 0.288,0.312 0.47875,0.8075 0.59375,1.4375 l 1.1875,-0.25 c -0.143,-0.985 -0.45875,-1.72675 -0.96875,-2.21875 -0.511,-0.493 -1.131,-0.71875 -1.875,-0.71875 z m 6.968755,0 c -0.976005,0 -1.800505,0.403 -2.437505,1.25 -0.637,0.847 -0.9375,2.0755 -0.9375,3.6875 0,1.553 0.3065,2.76975 0.9375,3.59375 0.632,0.823 1.44875,1.21875 2.468755,1.21875 0.80899,0 1.48224,-0.243 2.03125,-0.75 0.548,-0.507 0.94625,-1.253 1.15625,-2.25 l -1.25,-0.21875 c -0.359,1.278 -0.99225,1.90425 -1.90625,1.90625 -0.58401,0 -1.092005,-0.24825 -1.500005,-0.78125 -0.408,-0.534 -0.6375,-1.326 -0.6875,-2.375 l 5.375005,0 0,-0.4375 c 0,-1.577 -0.3145,-2.76075 -0.9375,-3.59375 -0.622,-0.833 -1.3805,-1.25 -2.3125,-1.25 z m 7.21875,0 c -0.84901,0 -1.521,0.251 -2,0.75 -0.48001,0.498 -0.71875,1.1405 -0.71875,1.9375 0,0.463 0.073,0.85475 0.25,1.21875 0.176,0.364 0.43,0.658 0.75,0.875 0.319,0.217 0.95825,0.5015 1.90625,0.8125 0.655,0.211 1.07899,0.39025 1.25,0.53125 0.248,0.205 0.375,0.47375 0.375,0.84375 0,0.428 -0.1485,0.7845 -0.4375,1.0625 -0.288,0.279 -0.69175,0.40625 -1.21875,0.40625 -0.529,0 -0.96225,-0.14775 -1.28125,-0.46875 -0.318,-0.321 -0.52276,-0.80875 -0.59375,-1.46875 l -1.21875,0.25 c 0.275,2.005 1.274,3.001 3,3 0.921,0 1.6555,-0.2605 2.1875,-0.8125 0.53199,-0.552 0.8125,-1.2945 0.8125,-2.1875 0,-0.482 -0.085,-0.901 -0.25,-1.25 -0.16501,-0.349 -0.42176,-0.6095 -0.71875,-0.8125 -0.29601,-0.202 -0.9275,-0.4715 -1.9375,-0.8125 -0.734,-0.257 -1.19576,-0.4455 -1.34375,-0.5625 -0.249,-0.198 -0.375,-0.4675 -0.375,-0.8125 0,-0.351 0.14725,-0.651 0.40625,-0.875 0.259,-0.224 0.65949,-0.34375 1.1875,-0.34375 0.93099,0 1.4525,0.51125 1.5625,1.53125 l 1.1875,-0.1875 c -0.083,-0.645 -0.22151,-1.154 -0.4375,-1.5 -0.21501,-0.346 -0.5325,-0.63775 -0.9375,-0.84375 -0.405,-0.205 -0.87225,-0.28125 -1.40625,-0.28125 z m -27.875005,0.1875 2.71875,9.34375 1.15625,0 2.71875,-9.34375 -1.25,0 -1.59375,5.71875 c -0.193,0.692 -0.36375,1.28825 -0.46875,1.78125 -0.133,-0.621 -0.2605,-1.27325 -0.4375,-1.90625 l -1.5625,-5.59375 -1.28125,0 z m 7.65625,0 0,9.34375 1.21875,0 0,-9.34375 -1.21875,0 z m -40.0625,0.125 c -0.967,0 -1.745,0.43425 -2.375,1.28125 -0.631,0.847 -0.96875,2.0755 -0.96875,3.6875 0,1.553 0.3125,2.7395 0.9375,3.5625 0.625,0.823 1.45875,1.25 2.46875,1.25 0.802,0 1.457,-0.27425 2,-0.78125 0.542,-0.507 0.917,-1.253 1.125,-2.25 l -1.21875,-0.1875 c -0.355,1.278 -1.00025,1.90425 -1.90625,1.90625 -0.579,0 -1.06475,-0.24825 -1.46875,-0.78125 -0.404,-0.534 -0.6385,-1.326 -0.6875,-2.375 l 5.3125,0 0.03125,-0.4375 c 0,-1.577 -0.3205,-2.792 -0.9375,-3.625 -0.617,-0.833 -1.3905,-1.25 -2.3125,-1.25 z m -13.71875,0.21875 2.1875,9.34375 1.28125,0 1.4375,-7.1875 0.25,1.59375 1.15625,5.59375 1.25,0 2.21875,-9.34375 -1.15625,0 -1.21875,5.40625 -0.40625,1.8125 -0.375,-1.8125 -1.0625,-5.40625 -1.25,0 -1.125,5.46875 -0.375,1.9375 -0.4375,-2 -1.125,-5.40625 -1.25,0 z m 77.781255,0.09375 0,0.4375 1.1875,0 0,3.125 0.46875,0 0,-3.125 1.1875,0 0,-0.4375 -2.84375,0 z m 3.3125,0 0,3.5625 0.4375,0 0,-3.03125 1.03125,3.03125 0.4375,0 1.03125,-2.96875 0,2.96875 0.46875,0 0,-3.5625 -0.65625,0 -0.84375,2.5 c -0.085,0.25 -0.1455,0.4305 -0.1875,0.5625 l -0.1875,-0.53125 -0.84375,-2.53125 -0.6875,0 z m -43.656255,0.65625 c 0.607,0 1.108,0.294 1.5,0.875 0.27,0.399 0.445,1.0035 0.5,1.8125 l -4.03125,0 c 0.038,-0.821 0.27025,-1.4535 0.65625,-1.9375 0.386,-0.484 0.83,-0.75 1.375,-0.75 z m 29.312505,0 c 0.605,0 1.108,0.294 1.5,0.875 0.269,0.399 0.44499,1.0035 0.5,1.8125 l -4.031255,0 c 0.038,-0.821 0.26925,-1.4535 0.65625,-1.9375 0.385,-0.484 0.828995,-0.75 1.375005,-0.75 z m -53.031255,0.34375 c 0.6,0 1.08175,0.294 1.46875,0.875 0.267,0.399 0.445,1.0035 0.5,1.8125 l -3.96875,0 c 0.038,-0.821 0.241,-1.48475 0.625,-1.96875 0.382,-0.484 0.834,-0.71875 1.375,-0.71875 z m 7.75,0 c 0.542,0 1.003,0.301 1.375,0.875 0.372,0.575 0.53125,1.4615 0.53125,2.6875 0,1.196 -0.1765,2.0865 -0.5625,2.6875 -0.386,0.601 -0.84575,0.90625 -1.34375,0.90625 -0.366,0 -0.699,-0.123 -1,-0.375 -0.302,-0.252 -0.5235,-0.61375 -0.6875,-1.09375 -0.164,-0.481 -0.25,-1.2205 -0.25,-2.1875 0,-1.138 0.20275,-1.99275 0.59375,-2.59375 0.391,-0.601 0.84575,-0.90625 1.34375,-0.90625 z"
         inkscape:connector-curvature="0" />
      <path
         style="fill:#f7a80d;fill-rule:evenodd"
         id="polygon287"
         d="m 16.40625,27.5625 -4.65625,2 4.3125,1.84375 5,-1.84375 -4.65625,-2 z m -7,2.5 -0.15625,9 6.8125,3 0,-9.34375 -6.65625,-2.65625 z m 14,0 -6.15625,2.34375 0,8.8125 6.15625,-2.5 0,-8.65625 z"
         inkscape:connector-curvature="0" />
      <path
         style="fill:#f7a80d;fill-rule:evenodd"
         id="polygon311"
         d="m 30.75,2.0625 -4.6875,2 4.34375,1.84375 5,-1.84375 -4.65625,-2 z m -6.5,2.65625 0,9 5.8125,1.6875 0.1875,-8.1875 -6,-2.5 z m 13,0.5 -5.5,2.34375 0,8.84375 5.5,-2.5 0,-8.6875 z"
         inkscape:connector-curvature="0" />
      <path
         style="fill:#f7a80d;fill-rule:evenodd"
         id="use3387"
         d="m 8.734375,14.7295 -4.65625,2 4.3125,1.84375 5,-1.84375 -4.65625,-2 z m -7,2.5 -0.15625,9 6.8125,3 0,-9.34375 -6.65625,-2.65625 z m 14,0 -6.15625,2.34375 0,8.8125 6.15625,-2.5 0,-8.65625 z"
         inkscape:connector-curvature="0" />
      <path
         style="fill:#f7a80d;fill-rule:evenodd"
         id="use3389"
         d="m 23.73425,14.396999 -4.65625,2 4.3125,1.84375 5,-1.84375 -4.65625,-2 z m -7,2.5 -0.15625,9 6.8125,3 0,-9.34375 -6.65625,-2.65625 z m 14,0 -6.15625,2.34375 0,8.8125 6.15625,-2.5 0,-8.65625 z"
         inkscape:connector-curvature="0" />
      <path
         style="fill:#f7a80d;fill-rule:evenodd"
         id="use3391"
         d="m 45.401375,2.0625 -4.65625,2 4.3125,1.84375 5,-1.84375 -4.65625,-2 z m -7,2.5 -0.15625,9 6.8125,3 0,-9.34375 -6.65625,-2.65625 z m 14,0 -6.15625,2.34375 0,8.8125 6.15625,-2.5 0,-8.65625 z"
         inkscape:connector-curvature="0" />
    </g>
    <g
       id="g15096"
       transform="translate(-34.377715,-10)">
      <g
         transform="matrix(0.27568943,0,0,0.27568943,637.83643,320.619)"
         id="g2303">
        <path
           inkscape:connector-curvature="0"
           id="path46"
           style="fill:#646464;fill-opacity:1"
           d="m 184.61344,61.929363 c 0,-14.56215 -4.15226,-22.03817 -12.45678,-22.44755 -3.30427,-0.15595 -6.53055,0.37039 -9.66912,1.58878 -2.505,0.89673 -4.19124,1.78372 -5.07823,2.68045 l 0,34.75812 c 5.31216,3.33351 10.02976,4.88329 14.14303,4.63962 8.70415,-0.57508 13.0611,-7.64172 13.0611,-21.21942 z m 10.24419,0.60432 c 0,7.39804 -1.73498,13.53871 -5.22444,18.422 -3.88909,5.5266 -9.27923,8.37275 -16.17042,8.52871 -5.1952,0.1657 -10.54635,-1.46207 -16.05346,-4.87355 l 0,31.590317 -8.90884,-3.17755 0,-70.120567 c 1.46206,-1.79346 3.34325,-3.3335 5.62407,-4.63961 5.30242,-3.08983 11.74524,-4.67861 19.32848,-4.75658 l 0.12671,0.12671 c 6.93018,-0.08773 12.27159,2.75843 16.02422,8.5287 3.4992,5.29267 5.25368,12.07665 5.25368,20.37142 z" />
        <path
           inkscape:connector-curvature="0"
           id="path48"
           style="fill:#646464;fill-opacity:1"
           d="m 249.30487,83.265743 c 0,9.92254 -0.9942,16.794237 -2.9826,20.615097 -1.99816,3.82086 -5.79952,6.8717 -11.41385,9.14277 -4.55189,1.79346 -9.47417,2.76817 -14.75709,2.93387 l -1.47181,-5.61432 c 5.37064,-0.73103 9.15252,-1.46207 11.34561,-2.1931 4.31796,-1.46206 7.28108,-3.70389 8.90884,-6.706 1.30611,-2.446517 1.94942,-7.115367 1.94942,-14.026057 l 0,-2.3198 c -6.09193,2.76817 -12.47628,4.14251 -19.15303,4.14251 -4.38619,0 -8.25579,-1.37434 -11.58929,-4.14251 -3.74289,-3.01186 -5.61433,-6.83272 -5.61433,-11.46258 l 0,-37.07793 8.90884,-3.05084 0,37.3216 c 0,3.98656 1.28662,7.0569 3.85985,9.21101 2.57323,2.1541 5.90674,3.18729 9.99077,3.10932 4.08403,-0.08773 8.46047,-1.66676 13.10983,-4.75658 l 0,-43.54025 8.90884,0 0,48.41379 z" />
        <path
           inkscape:connector-curvature="0"
           id="path50"
           style="fill:#646464;fill-opacity:1"
           d="m 284.08249,88.997033 c -1.06243,0.08772 -2.03714,0.12671 -2.93387,0.12671 -5.03925,0 -8.96733,-1.19889 -11.77449,-3.60642 -2.79742,-2.40753 -4.20099,-5.73129 -4.20099,-9.97127 l 0,-35.08953 -6.10168,0 0,-5.60457 6.10168,0 0,-14.88381 8.89909,-3.16781 0,18.05162 10.01026,0 0,5.60457 -10.01026,0 0,34.84585 c 0,3.34325 0.89673,5.71179 2.6902,7.09588 1.54004,1.14041 3.98656,1.79347 7.32006,1.95917 l 0,4.63961 z" />
        <path
           inkscape:connector-curvature="0"
           id="path52"
           style="fill:#646464;fill-opacity:1"
           d="m 338.02288,88.266003 -8.90884,0 0,-34.38773 c 0,-3.49921 -0.81876,-6.51106 -2.44651,-9.02581 -1.88119,-2.84615 -4.49342,-4.26923 -7.84641,-4.26923 -4.08404,0 -9.19152,2.15411 -15.32242,6.46233 l 0,41.22044 -8.90885,0 0,-82.1972101 8.90885,-2.80716 0,37.4385701 c 5.6923,-4.14251 11.91093,-6.21864 18.66566,-6.21864 4.7176,0 8.53846,1.58877 11.46258,4.75658 2.93388,3.1678 4.39594,7.11537 4.39594,11.83296 l 0,37.1949 0,0 z" />
        <path
           inkscape:connector-curvature="0"
           id="path54"
           style="fill:#646464;fill-opacity:1"
           d="m 385.37424,60.525783 c 0,-5.59483 -1.06242,-10.21495 -3.17755,-13.87011 -2.51474,-4.45442 -6.42332,-6.80347 -11.70625,-7.04715 -9.76658,0.56534 -14.64012,7.56375 -14.64012,20.97574 0,6.15042 1.01369,11.28713 3.06057,15.41015 2.61223,5.25368 6.53056,7.84641 11.755,7.75869 9.80557,-0.07798 14.70835,-7.81717 14.70835,-23.22732 z m 9.75685,0.05848 c 0,7.96338 -2.03714,14.5914 -6.10168,19.88407 -4.47391,5.92623 -10.65357,8.89909 -18.53897,8.89909 -7.81716,0 -13.90909,-2.97286 -18.30503,-8.89909 -3.98656,-5.29267 -5.97497,-11.92069 -5.97497,-19.88407 0,-7.48576 2.15411,-13.78238 6.46232,-18.90935 4.5519,-5.43888 10.53661,-8.16806 17.93464,-8.16806 7.39805,0 13.42174,2.72918 18.06137,8.16806 4.3082,5.12697 6.46232,11.42359 6.46232,18.90935 z" />
        <path
           inkscape:connector-curvature="0"
           id="path56"
           style="fill:#646464;fill-opacity:1"
           d="m 446.20583,88.266003 -8.90884,0 0,-36.33715 c 0,-3.98656 -1.19889,-7.09588 -3.59667,-9.33772 -2.39779,-2.23208 -5.59483,-3.31401 -9.58139,-3.22628 -4.23023,0.07798 -8.25579,1.46206 -12.07664,4.14251 l 0,44.75864 -8.90884,0 0,-45.86006 c 5.12697,-3.73313 9.84456,-6.16991 14.15276,-7.31032 4.06455,-1.06243 7.65148,-1.58877 10.74131,-1.58877 2.11512,0 4.10352,0.20469 5.97496,0.61406 3.49921,0.80901 6.34535,2.31006 8.53845,4.51291 2.44651,2.43677 3.6649,5.3609 3.6649,8.78212 l 0,40.85006 z" />
        <path
           inkscape:connector-curvature="0"
           id="path1948"
           style="fill:url(#linearGradient1478);fill-opacity:1"
           d="m 60.510156,6.3979729 c -4.583653,0.021298 -8.960939,0.4122177 -12.8125,1.09375 C 36.35144,9.4962267 34.291407,13.691825 34.291406,21.429223 l 0,10.21875 26.8125,0 0,3.40625 -26.8125,0 -10.0625,0 c -7.792459,0 -14.6157592,4.683717 -16.7500002,13.59375 -2.46182,10.212966 -2.5710151,16.586023 0,27.25 1.9059283,7.937852 6.4575432,13.593748 14.2500002,13.59375 l 9.21875,0 0,-12.25 c 0,-8.849902 7.657144,-16.656248 16.75,-16.65625 l 26.78125,0 c 7.454951,0 13.406253,-6.138164 13.40625,-13.625 l 0,-25.53125 c 0,-7.266339 -6.12998,-12.7247775 -13.40625,-13.9375001 -4.605987,-0.7667253 -9.385097,-1.1150483 -13.96875,-1.09375 z m -14.5,8.2187501 c 2.769547,0 5.03125,2.298646 5.03125,5.125 -2e-6,2.816336 -2.261703,5.09375 -5.03125,5.09375 -2.779476,-1e-6 -5.03125,-2.277415 -5.03125,-5.09375 -1e-6,-2.826353 2.251774,-5.125 5.03125,-5.125 z" />
        <path
           inkscape:connector-curvature="0"
           id="path1950"
           style="fill:url(#linearGradient1475);fill-opacity:1"
           d="m 91.228906,35.054223 0,11.90625 c 0,9.230755 -7.825895,16.999999 -16.75,17 l -26.78125,0 c -7.335833,0 -13.406249,6.278483 -13.40625,13.625 l 0,25.531247 c 0,7.26634 6.318588,11.54032 13.40625,13.625 8.487331,2.49561 16.626237,2.94663 26.78125,0 6.750155,-1.95439 13.406253,-5.88761 13.40625,-13.625 l 0,-10.218747 -26.78125,0 0,-3.40625 26.78125,0 13.406254,0 c 7.79246,0 10.69625,-5.435408 13.40624,-13.59375 2.79933,-8.398886 2.68022,-16.475776 0,-27.25 -1.92578,-7.757441 -5.60387,-13.59375 -13.40624,-13.59375 l -10.062504,0 z m -15.0625,64.65625 c 2.779478,3e-6 5.03125,2.277417 5.03125,5.093747 -2e-6,2.82635 -2.251775,5.125 -5.03125,5.125 -2.76955,0 -5.03125,-2.29865 -5.03125,-5.125 2e-6,-2.81633 2.261697,-5.093747 5.03125,-5.093747 z" />
        <path
           inkscape:connector-curvature="0"
           id="text3004"
           style="font-style:normal;font-weight:normal;font-size:15.16445827px;line-height:125%;font-family:'Bitstream Vera Sans';fill:#646464;fill-opacity:1;stroke:none;stroke-width:1px;stroke-linecap:butt;stroke-linejoin:miter;stroke-opacity:1"
           d="m 463.5544,26.909383 1.56195,0 0,-9.79624 3.70013,0 0,-1.16766 -8.96221,0 0,1.16766 3.70013,0 0,9.79624 m 6.64702,0 1.33447,0 0,-8.94703 2.89641,8.945906 1.48569,0 3.01816,-8.915576 0,8.9167 1.45579,0 0,-10.9639 -1.92589,0 -3.29831,9.392857 -2.81297,-9.392857 -2.15335,0 0,10.9639" />
        <path
           inkscape:connector-curvature="0"
           id="path1894"
           style="opacity:0.44382019;fill:url(#radialGradient1480);fill-opacity:1;fill-rule:nonzero;stroke:none;stroke-width:20;stroke-miterlimit:4;stroke-dasharray:none;stroke-opacity:1"
           transform="matrix(0.73406,0,0,0.809524,16.24958,27.00935)"
           d="m 110.46717,132.28575 a 48.948285,8.6066809 0 1 1 -97.896571,0 48.948285,8.6066809 0 1 1 97.896571,0 z" />
      </g>
      <image
         sodipodi:absref="/home/tw-johns/dev/Presentations/qgis_users_roadnet_talk/images/shippable_logo.png"
         xlink:href="shippable_logo.png"
         y="310.51367"
         x="558.10229"
         id="image14886"
         preserveAspectRatio="none"
         height="60.000004"
         width="60.000004" />
    </g>
    <text
       xml:space="preserve"
       style="font-style:normal;font-variant:normal;font-weight:normal;font-stretch:normal;font-size:25px;line-height:125%;font-family:Lato;-inkscape-font-specification:Lato;letter-spacing:0px;word-spacing:0px;fill:#586e75;fill-opacity:1;stroke:none;stroke-width:1px;stroke-linecap:butt;stroke-linejoin:miter;stroke-opacity:1"
       x="65.352844"
       y="144.02324"
       id="text4472-6"
       sodipodi:linespacing="125%"><tspan
         sodipodi:role="line"
         x="65.352844"
         y="144.02324"
         style="font-size:40px"
         id="tspan14922-1">Push to repo</tspan></text>
    <text
       xml:space="preserve"
       style="font-style:normal;font-variant:normal;font-weight:normal;font-stretch:normal;font-size:25px;line-height:125%;font-family:Lato;-inkscape-font-specification:Lato;letter-spacing:0px;word-spacing:0px;fill:#586e75;fill-opacity:1;stroke:none;stroke-width:1px;stroke-linecap:butt;stroke-linejoin:miter;stroke-opacity:1"
       x="132.11868"
       y="243.86017"
       id="text4472-6-7"
       sodipodi:linespacing="125%"><tspan
         sodipodi:role="line"
         x="132.11868"
         y="243.86017"
         style="font-size:40px"
         id="tspan14922-1-8">Start container</tspan></text>
    <text
       xml:space="preserve"
       style="font-style:normal;font-variant:normal;font-weight:normal;font-stretch:normal;font-size:25px;line-height:125%;font-family:Lato;-inkscape-font-specification:Lato;letter-spacing:0px;word-spacing:0px;fill:#586e75;fill-opacity:1;stroke:none;stroke-width:1px;stroke-linecap:butt;stroke-linejoin:miter;stroke-opacity:1"
       x="193.44452"
       y="340.30725"
       id="text4472-6-76"
       sodipodi:linespacing="125%"><tspan
         sodipodi:role="line"
         x="193.44452"
         y="340.30725"
         style="font-size:40px"
         id="tspan14985">Run tests</tspan></text>
    <text
       xml:space="preserve"
       style="font-style:normal;font-variant:normal;font-weight:normal;font-stretch:normal;font-size:25px;line-height:125%;font-family:Lato;-inkscape-font-specification:Lato;letter-spacing:0px;word-spacing:0px;fill:#586e75;fill-opacity:1;stroke:none;stroke-width:1px;stroke-linecap:butt;stroke-linejoin:miter;stroke-opacity:1"
       x="257.89035"
       y="434.14423"
       id="text4472-6-76-7"
       sodipodi:linespacing="125%"><tspan
         sodipodi:role="line"
         x="257.89035"
         y="434.14423"
         style="font-size:40px"
         id="tspan14985-1">Deploy to cloud</tspan></text>
    <g
       id="g15110"
       transform="translate(-38.076451,1.3697589)">
      <g
         id="g13804"
         inkscape:label="ink_ext_XXXXXX"
         transform="matrix(0.17797813,0,0,-0.17797813,633.63541,252.53241)">
        <g
           id="g13806"
           transform="scale(0.1,0.1)">
          <path
             d="m 0,0 8000,0 0,2750 L 0,2750 0,0 Z"
             style="fill:#eaeaea;fill-opacity:1;fill-rule:evenodd;stroke:none"
             id="path13808"
             inkscape:connector-curvature="0" />
          <path
             d="m 2228.14,1672.31 255.94,0 0,-259.51 129.47,0 c 59.77,0 121.22,10.57 177.84,29.6 27.81,9.34 58.99,22.35 86.46,38.7 -36.14,46.8 -54.58,105.88 -60.02,164.11 -7.35,79.19 8.71,182.31 62.79,244.29 l 26.89,30.87 32.07,-25.57 c 80.74,-64.34 148.61,-154.18 160.57,-256.65 97.23,28.34 211.32,21.64 297.04,-27.39 l 35.11,-20.1 -18.5,-35.82 C 3341.35,1414.62 3189.88,1371.13 3041.76,1378.85 2820.15,831.449 2337.68,572.289 1752.68,572.289 c -302.26,0 -579.55,112.051 -737.43,377.922 l -2.6,4.391 -22.986,46.398 c -53.371,117.07 -71.113,245.32 -59.078,373.43 l 3.59,38.37 218.904,0 0,259.51 255.95,0 0,253.82 511.92,0 0,253.87 307.19,0 0,-507.69"
             style="fill:#354750;fill-opacity:1;fill-rule:evenodd;stroke:none"
             id="path13810"
             inkscape:connector-curvature="0" />
          <path
             d="m 3057.45,1576.29 c 17.16,132.3 -82.66,236.21 -144.59,285.52 -71.35,-81.78 -82.44,-296.14 29.48,-386.4 -62.45,-55.02 -194.04,-104.9 -328.79,-104.9 l -1640.499,0 c -13.094,-139.49 11.605,-267.96 68.009,-377.959 l 18.66,-33.84 c 11.81,-19.91 24.72,-39.109 38.69,-57.563 l 0,0 c 67.44,-4.289 129.62,-5.757 186.49,-4.558 0.03,0 0.03,0 0.03,0 111.78,2.48 203.01,15.551 272.17,39.351 10.31,3.539 21.48,-1.91 25.05,-12.089 3.58,-10.18 -1.87,-21.34 -12.14,-24.864 -9.18,-3.16 -18.79,-6.078 -28.69,-8.937 0,0 -0.03,0 -0.05,0 -54.42,-15.41 -112.81,-25.789 -188.11,-30.36 4.44,-0.089 -4.63,-0.703 -4.68,-0.703 -2.56,-0.16 -5.78,-0.5 -8.36,-0.636 -29.65,-1.68 -61.63,-2.032 -94.34,-2.032 -35.79,0 -71.02,0.692 -110.4,2.668 l -1.01,-0.636 c 136.7,-152.383 350.41,-243.731 618.31,-243.731 566.95,0 1047.87,249.219 1260.8,808.829 151.1,-15.38 296.31,22.8 362.38,150.68 -105.22,60.2 -240.53,41 -318.41,2.16"
             style="fill:#48addf;fill-opacity:1;fill-rule:nonzero;stroke:none"
             id="path13812"
             inkscape:connector-curvature="0" />
          <path
             d="m 3057.45,1576.29 c 17.16,132.3 -82.66,236.21 -144.59,285.52 -71.35,-81.78 -82.44,-296.14 29.48,-386.4 -62.45,-55.02 -194.04,-104.9 -328.79,-104.9 l -1543.35,0 c -6.71,-213.63 73.24,-375.819 214.7,-473.92 0.03,0 0.03,0 0.03,0 111.78,2.48 203.01,15.551 272.17,39.351 10.31,3.539 21.48,-1.91 25.05,-12.089 3.58,-10.18 -1.87,-21.34 -12.14,-24.864 -9.18,-3.16 -18.79,-6.078 -28.69,-8.937 0,0 -0.03,0 -0.05,0 -54.42,-15.41 -117.8,-27.102 -193.12,-31.699 -0.05,0 -1.83,1.718 -1.83,1.718 192.93,-98.14 472.71,-97.8 793.51,24.371 359.66,137.029 694.35,398.119 927.86,696.719 -3.49,-1.62 -6.94,-3.19 -10.24,-4.87"
             style="fill:#56beee;fill-opacity:1;fill-rule:nonzero;stroke:none"
             id="path13814"
             inkscape:connector-curvature="0" />
          <path
             d="m 976.145,1201.02 c 10.164,-74.76 32.215,-144.73 64.915,-208.469 l 18.66,-33.84 c 11.81,-19.91 24.72,-39.109 38.69,-57.563 67.44,-4.289 129.62,-5.757 186.52,-4.558 111.78,2.48 203.01,15.551 272.17,39.351 10.31,3.539 21.48,-1.91 25.05,-12.089 3.58,-10.18 -1.87,-21.34 -12.14,-24.864 -9.18,-3.16 -18.79,-6.078 -28.69,-8.937 0,0 -0.03,0 -0.05,0 -54.42,-15.41 -117.49,-26.449 -192.79,-31.063 -2.56,-0.16 -7.07,-0.187 -9.7,-0.316 -29.61,-1.66 -61.29,-2.672 -93.99,-2.672 -35.78,0 -72.37,0.672 -111.76,2.672 136.71,-152.383 351.75,-244.051 619.65,-244.051 485.39,0 907.65,182.688 1152.75,586.399 l -1929.285,0"
             style="fill:#388bbd;fill-opacity:1;fill-rule:nonzero;stroke:none"
             id="path13816"
             inkscape:connector-curvature="0" />
          <path
             d="m 1084.98,1201.02 c 29,-131.24 98.75,-234.219 199.95,-304.43 111.78,2.48 203.01,15.551 272.17,39.351 10.31,3.539 21.48,-1.91 25.05,-12.089 3.58,-10.18 -1.87,-21.34 -12.14,-24.864 -9.18,-3.16 -18.79,-6.078 -28.69,-8.937 0,0 -0.03,0 -0.05,0 -54.42,-15.41 -118.81,-26.449 -194.13,-31.063 192.93,-98.148 471.92,-96.718 792.69,25.453 194.02,73.969 380.77,183.999 548.34,316.579 l -1603.19,0"
             style="fill:#409ccb;fill-opacity:1;fill-rule:nonzero;stroke:none"
             id="path13818"
             inkscape:connector-curvature="0" />
          <path
             d="m 1195.73,1630.01 221.82,0 0,-220.02 -221.82,0 0,220.02 z m 18.46,-18.35 17.52,0 0,-183.36 -17.52,0 0,183.36 z m 32.9,0 18.23,0 0,-183.36 -18.23,0 0,183.36 z m 33.63,0 18.21,0 0,-183.36 -18.21,0 0,183.36 z m 33.61,0 18.23,0 0,-183.36 -18.23,0 0,183.36 z m 33.61,0 18.21,0 0,-183.36 -18.21,0 0,183.36 z m 33.61,0 17.54,0 0,-183.36 -17.54,0 0,183.36"
             style="fill:#46b0d7;fill-opacity:1;fill-rule:evenodd;stroke:none"
             id="path13820"
             inkscape:connector-curvature="0" />
          <path
             d="m 1451.67,1883.85 221.86,0 0,-220.01 -221.86,0 0,220.01 z m 18.5,-18.33 17.5,0 0,-183.34 -17.5,0 0,183.34 z m 32.94,0 18.2,0 0,-183.34 -18.2,0 0,183.34 z m 33.55,0 18.23,0 0,-183.34 -18.23,0 0,183.34 z m 33.65,0 18.19,0 0,-183.34 -18.19,0 0,183.34 z m 33.63,0 18.2,0 0,-183.34 -18.2,0 0,183.34 z m 33.59,0 17.53,0 0,-183.34 -17.53,0 0,183.34"
             style="fill:#46b0d7;fill-opacity:1;fill-rule:evenodd;stroke:none"
             id="path13822"
             inkscape:connector-curvature="0" />
          <path
             d="m 1451.67,1630.01 221.86,0 0,-220.02 -221.86,0 0,220.02 z m 18.5,-18.35 17.5,0 0,-183.36 -17.5,0 0,183.36 z m 32.94,0 18.2,0 0,-183.36 -18.2,0 0,183.36 z m 33.55,0 18.23,0 0,-183.36 -18.23,0 0,183.36 z m 33.65,0 18.19,0 0,-183.36 -18.19,0 0,183.36 z m 33.63,0 18.2,0 0,-183.36 -18.2,0 0,183.36 z m 33.59,0 17.53,0 0,-183.36 -17.53,0 0,183.36"
             style="fill:#58c8f1;fill-opacity:1;fill-rule:evenodd;stroke:none"
             id="path13824"
             inkscape:connector-curvature="0" />
          <path
             d="m 1707.67,1630.01 221.85,0 0,-220.02 -221.85,0 0,220.02 z m 18.46,-18.35 17.52,0 0,-183.36 -17.52,0 0,183.36 z m 32.92,0 18.21,0 0,-183.36 -18.21,0 0,183.36 z m 33.64,0 18.2,0 0,-183.36 -18.2,0 0,183.36 z m 33.61,0 18.2,0 0,-183.36 -18.2,0 0,183.36 z m 33.58,0 18.23,0 0,-183.36 -18.23,0 0,183.36 z m 33.64,0 17.51,0 0,-183.36 -17.51,0 0,183.36"
             style="fill:#46b0d7;fill-opacity:1;fill-rule:evenodd;stroke:none"
             id="path13826"
             inkscape:connector-curvature="0" />
          <path
             d="m 1707.67,1883.85 221.85,0 0,-220.01 -221.85,0 0,220.01 z m 18.46,-18.33 17.52,0 0,-183.34 -17.52,0 0,183.34 z m 32.92,0 18.21,0 0,-183.34 -18.21,0 0,183.34 z m 33.64,0 18.2,0 0,-183.34 -18.2,0 0,183.34 z m 33.61,0 18.2,0 0,-183.34 -18.2,0 0,183.34 z m 33.58,0 18.23,0 0,-183.34 -18.23,0 0,183.34 z m 33.64,0 17.51,0 0,-183.34 -17.51,0 0,183.34"
             style="fill:#58c8f1;fill-opacity:1;fill-rule:evenodd;stroke:none"
             id="path13828"
             inkscape:connector-curvature="0" />
          <path
             d="m 1963.64,1630.01 221.85,0 0,-220.02 -221.85,0 0,220.02 z m 18.47,-18.35 17.53,0 0,-183.36 -17.53,0 0,183.36 z m 32.94,0 18.21,0 0,-183.36 -18.21,0 0,183.36 z m 33.61,0 18.2,0 0,-183.36 -18.2,0 0,183.36 z m 33.61,0 18.2,0 0,-183.36 -18.2,0 0,183.36 z m 33.61,0 18.22,0 0,-183.36 -18.22,0 0,183.36 z m 33.61,0 17.54,0 0,-183.36 -17.54,0 0,183.36"
             style="fill:#58c8f1;fill-opacity:1;fill-rule:evenodd;stroke:none"
             id="path13830"
             inkscape:connector-curvature="0" />
          <path
             d="m 1963.64,1883.85 221.85,0 0,-220.01 -221.85,0 0,220.01 z m 18.47,-18.33 17.53,0 0,-183.34 -17.53,0 0,183.34 z m 32.94,0 18.21,0 0,-183.34 -18.21,0 0,183.34 z m 33.61,0 18.2,0 0,-183.34 -18.2,0 0,183.34 z m 33.61,0 18.2,0 0,-183.34 -18.2,0 0,183.34 z m 33.61,0 18.22,0 0,-183.34 -18.22,0 0,183.34 z m 33.61,0 17.54,0 0,-183.34 -17.54,0 0,183.34"
             style="fill:#46b0d7;fill-opacity:1;fill-rule:evenodd;stroke:none"
             id="path13832"
             inkscape:connector-curvature="0" />
          <path
             d="m 1963.64,2137.71 221.85,0 0,-220.01 -221.85,0 0,220.01 z m 18.47,-18.32 17.53,0 0,-183.37 -17.53,0 0,183.37 z m 32.94,0 18.21,0 0,-183.37 -18.21,0 0,183.37 z m 33.61,0 18.2,0 0,-183.37 -18.2,0 0,183.37 z m 33.61,0 18.2,0 0,-183.37 -18.2,0 0,183.37 z m 33.61,0 18.22,0 0,-183.37 -18.22,0 0,183.37 z m 33.61,0 17.54,0 0,-183.37 -17.54,0 0,183.37"
             style="fill:#58c8f1;fill-opacity:1;fill-rule:evenodd;stroke:none"
             id="path13834"
             inkscape:connector-curvature="0" />
          <path
             d="m 2219.6,1630.01 221.83,0 0,-220.02 -221.83,0 0,220.02 z m 18.49,-18.35 17.49,0 0,-183.36 -17.49,0 0,183.36 z m 32.92,0 18.18,0 0,-183.36 -18.18,0 0,183.36 z m 33.61,0 18.21,0 0,-183.36 -18.21,0 0,183.36 z m 33.59,0 18.21,0 0,-183.36 -18.21,0 0,183.36 z m 33.64,0 18.19,0 0,-183.36 -18.19,0 0,183.36 z m 33.6,0 17.51,0 0,-183.36 -17.51,0 0,183.36"
             style="fill:#46b0d7;fill-opacity:1;fill-rule:evenodd;stroke:none"
             id="path13836"
             inkscape:connector-curvature="0" />
          <path
             d="m 1659.66,1053.27 c 33.8,0 61.21,-27.17 61.21,-60.661 0,-33.558 -27.41,-60.711 -61.21,-60.711 -33.83,0 -61.2,27.153 -61.2,60.711 0,33.491 27.37,60.661 61.2,60.661"
             style="fill:#d7f2f2;fill-opacity:1;fill-rule:evenodd;stroke:none"
             id="path13838"
             inkscape:connector-curvature="0" />
          <path
             d="m 1659.66,1036.1 c 5.59,0 10.92,-1.09 15.83,-2.97 -5.31,-3.05 -8.92,-8.8 -8.92,-15.36 0,-9.8 8,-17.73 17.89,-17.73 6.77,0 12.64,3.7 15.67,9.24 2.16,-5.15 3.33,-10.749 3.33,-16.671 0,-24.019 -19.61,-43.5 -43.8,-43.5 -24.21,0 -43.85,19.481 -43.85,43.5 0,23.981 19.64,43.491 43.85,43.491"
             style="fill:#354750;fill-opacity:1;fill-rule:evenodd;stroke:none"
             id="path13840"
             inkscape:connector-curvature="0" />
          <path
             d="m 577.113,1179.07 2847.037,0 c -62.03,15.61 -196.16,36.65 -174.02,117.23 -112.73,-129.37 -384.58,-90.75 -453.18,-26.97 -76.37,-109.9 -521.14,-68.12 -552.15,17.5 -95.77,-111.48 -392.55,-111.48 -488.36,0 -31.02,-85.62 -475.74,-127.4 -552.14,-17.5 -68.63,-63.78 -340.445,-102.4 -453.155,26.97 22.113,-80.58 -112.028,-101.62 -174.032,-117.23"
             style="fill:#354750;fill-opacity:1;fill-rule:evenodd;stroke:none"
             id="path13842"
             inkscape:connector-curvature="0" />
          <path
             d="m 1822.35,615.91 c -151.57,71.34 -234.78,168.262 -281.08,274.141 -56.29,-15.942 -123.96,-26.11 -202.59,-30.5 -29.65,-1.672 -60.77,-2.473 -93.48,-2.473 -37.71,0 -77.43,1.113 -119.1,3.293 138.98,-137.769 309.95,-243.832 626.58,-245.75 23.35,0 46.58,0.418 69.67,1.289"
             style="fill:#c2e1e1;fill-opacity:1;fill-rule:nonzero;stroke:none"
             id="path13844"
             inkscape:connector-curvature="0" />
          <path
             d="m 1597.58,792.379 c -20.97,28.23 -41.3,63.703 -56.26,97.672 -56.34,-15.942 -124.01,-26.11 -202.64,-30.5 53.99,-29.082 131.28,-56.012 258.9,-67.172"
             style="fill:#d7f2f2;fill-opacity:1;fill-rule:nonzero;stroke:none"
             id="path13846"
             inkscape:connector-curvature="0" />
          <path
             d="m 4120.7,1470.32 0,247.11 c 0,32.47 20.45,58.59 54.35,58.59 l 9.38,0 c 33.9,0 54.27,-26.12 54.27,-58.59 l 0,-520.25 c 0,-126.85 -63.21,-227.801 -173.32,-292.129 -51.07,-29.75 -107.52,-45.063 -166.72,-45.063 l -23.4,0 c -127.92,0 -229.59,62.723 -294.51,171.882 -30.15,50.67 -45.48,106.56 -45.48,165.31 l 0,23.22 c 0,126.88 63.22,227.75 173.28,292.19 51.11,29.92 107.46,45.12 166.71,45.12 l 23.4,0 c 86.59,0 160.09,-33.29 222.04,-87.39 z M 3653.25,1208.8 c 0,-91.67 44.81,-160.51 125.8,-204.49 32.72,-17.74 68.27,-27.279 105.65,-27.279 90.68,0 157.96,42.409 204.36,118.659 21.57,35.45 31.64,74.25 31.64,115.5 0,79.43 -37.94,141.43 -102.49,187.44 -39.11,27.96 -83.18,41.95 -131.23,41.95 -98.87,0 -170.02,-49.52 -212.73,-137.53 -14.41,-29.74 -21,-61.31 -21,-94.25 z m 994.84,348.91 16.36,0 c 136.73,0 240.7,-65.8 306.59,-184.17 26.35,-47.34 40.44,-99.02 40.44,-153.14 l 0,-23.22 c 0,-126.85 -63.07,-227.961 -173.34,-292.129 -51.09,-29.692 -107.51,-45.063 -166.68,-45.063 l -23.37,0 c -127.94,0 -229.61,62.723 -294.55,171.882 -30.14,50.67 -45.48,106.56 -45.48,165.31 l 0,23.22 c 0,126.88 63.48,227.46 173.2,292.17 51.06,30.08 107.52,45.14 166.83,45.14 z M 4426.03,1208.8 c 0,-88.95 44.05,-154.38 119.84,-200.38 35.53,-21.619 74.71,-31.389 116.3,-31.389 88.6,0 154.1,44.549 199.73,118.759 21.74,35.35 31.57,74.21 31.57,115.4 0,82.75 -40.16,145.88 -108.85,191.69 -37.63,25.12 -79.52,37.7 -124.84,37.7 -98.88,0 -170.02,-49.52 -212.7,-137.53 -14.46,-29.74 -21.05,-61.31 -21.05,-94.25 z m 1075.99,222.44 c -17.76,8.26 -51.13,11.01 -70.38,11.73 -98.58,3.69 -169.92,-51.38 -211.8,-137.62 -14.43,-29.73 -20.99,-61.25 -20.99,-94.16 0,-100.25 53.03,-170.43 143.29,-213.21 32.94,-15.589 75.48,-18.57 111.49,-18.57 31.69,0 76.47,19.231 104.58,32.48 l 4.87,2.27 21.79,0 2.42,-0.46 c 26.87,-5.56 47.1,-22.419 47.1,-51.028 l 0,-11.621 c 0,-71.219 -131.31,-87.571 -181.42,-91 -176.8,-12.153 -309.01,84.148 -359.45,251.389 -8.77,29.06 -12.7,57.9 -12.7,88.14 l 0,23.19 c 0,126.89 63.47,227.43 173.24,292.06 51.1,30.07 107.5,45.16 166.79,45.16 l 23.39,0 c 62.88,0 120.84,-17.7 172.75,-52.89 l 4.3,-2.92 2.65,-4.39 c 5.61,-9.22 10.45,-19.9 10.45,-30.87 l 0,-11.59 c 0,-29.88 -22.54,-45.91 -49.75,-51.12 l -2.24,-0.37 -6.96,0 c -17.63,0 -57.65,18.05 -73.42,25.4 z m 382.82,-79.26 c 45.81,45.53 91.84,90.94 138.36,135.73 12.94,12.48 62.03,65.35 81.34,65.35 l 21.17,0 2.38,-0.51 c 26.93,-5.54 47.12,-22.44 47.12,-51.11 l 0,-11.63 c 0,-19.55 -23.13,-42.3 -35.86,-55.69 -27.13,-28.5 -55.67,-56.05 -83.42,-83.98 l -142.54,-143.51 c 61.35,-61.02 122.67,-122.09 183.58,-183.57 16.83,-17 33.68,-34.048 50.29,-51.29 5.83,-6.09 14.52,-13.719 19.42,-22.18 5.27,-7.969 8.53,-16.93 8.53,-26.5 l 0,-12.051 -0.71,-2.801 c -6.63,-26.699 -23.72,-48.25 -53.55,-48.25 l -9.39,0 c -19.52,0 -41.57,21.934 -54.93,34.422 -27.55,25.781 -54.19,52.879 -81.23,79.18 l -90.56,88.21 0,-140.991 c 0,-32.418 -20.5,-58.52 -54.37,-58.52 l -9.32,0 c -33.86,0 -54.3,26.102 -54.3,58.52 l 0,794.361 c 0,32.49 20.44,58.48 54.3,58.48 l 9.32,0 c 33.87,0 54.37,-25.99 54.37,-58.48 l 0,-363.19 z m 1470.76,201.08 11.69,0 c 35.4,0 59.04,-23.68 59.04,-58.58 0,-48.45 -46.7,-60.86 -87.09,-60.86 -53.04,0 -103.6,-31.79 -140.17,-67.46 -45.55,-44.58 -65.49,-101.58 -65.49,-164.31 l 0,-283.299 c 0,-32.512 -20.46,-58.563 -54.32,-58.563 l -9.31,0 c -33.93,0 -54.38,26.051 -54.38,58.563 l 0,299.569 c 0,115.04 56.46,208.91 150.6,274.82 56.25,39.35 120.58,60.12 189.43,60.12 z M 6516.88,991.59 c 42.91,-14.879 91.89,-12.762 135.95,-5.141 22.51,9.5 80.18,34.421 101.36,30.801 l 3.34,-0.58 3.02,-1.47 c 12.93,-6.24 25.29,-15.04 31.9,-28.091 15.48,-30.629 8.03,-61.398 -22.28,-78.75 l -10.11,-5.828 c -111.93,-64.07 -230.99,-55.191 -342.58,4.66 -53.35,28.59 -94.14,71.071 -124.26,122.839 l -7.04,12.08 c -71.86,123.39 -62.16,253.23 18.9,370.6 27.96,40.55 64.51,71.91 107.25,96.41 l 16.2,9.26 c 105.43,60.35 218.4,56.23 326.68,3.26 58.2,-28.49 105.34,-70.96 137.83,-126.77 l 5.87,-10.03 c 23.6,-40.62 -6.99,-75.95 -38.56,-100.13 -36.65,-28 -73.63,-61.75 -108.75,-91.8 -78.3,-67.04 -156.44,-134.24 -234.72,-201.32 z m -101.36,70.58 c 87.61,74.48 175.18,149 262.51,223.8 29.84,25.5 62.57,51.96 92.21,78.84 -23.78,29.65 -63.47,51.09 -97.19,63.84 -68.07,25.72 -135.17,17.05 -197.6,-18.66 -81.69,-46.76 -116.53,-121.29 -113.48,-214 1.24,-36.5 11.13,-71.67 30.69,-102.76 6.86,-10.95 14.58,-21.25 22.86,-31.06"
             style="fill:#354750;fill-opacity:1;fill-rule:evenodd;stroke:none"
             id="path13848"
             inkscape:connector-curvature="0" />
        </g>
      </g>
      <image
         sodipodi:absref="/home/tw-johns/dev/Presentations/qgis_users_roadnet_talk/images/shippable_logo.png"
         xlink:href="shippable_logo.png"
         width="57.857147"
         height="57.857147"
         preserveAspectRatio="none"
         id="image14886-1"
         x="559.75726"
         y="199.13184" />
    </g>
    <path
       style="fill:none;fill-opacity:1;fill-rule:evenodd;stroke:#859900;stroke-width:4.4000001;stroke-linecap:butt;stroke-linejoin:miter;stroke-miterlimit:4;stroke-dasharray:none;stroke-opacity:1;marker-end:url(#Arrow1Send-2)"
       d="M 16.3272,74.433141 C 12.352376,102.7496 6.6782537,129.86171 43.413368,129.14742"
       id="path4924-2"
       inkscape:connector-curvature="0"
       sodipodi:nodetypes="cc" />
    <path
       style="fill:none;fill-opacity:1;fill-rule:evenodd;stroke:#859900;stroke-width:4.4000001;stroke-linecap:butt;stroke-linejoin:miter;stroke-miterlimit:4;stroke-dasharray:none;stroke-opacity:1;marker-end:url(#Arrow1Send-2-6)"
       d="m 80.373039,173.73007 c -3.974824,28.31646 -9.648946,55.42857 27.086171,54.71428"
       id="path4924-2-0"
       inkscape:connector-curvature="0"
       sodipodi:nodetypes="cc" />
    <path
       style="fill:none;fill-opacity:1;fill-rule:evenodd;stroke:#859900;stroke-width:4.4000001;stroke-linecap:butt;stroke-linejoin:miter;stroke-miterlimit:4;stroke-dasharray:none;stroke-opacity:1;marker-end:url(#Arrow1Send-2-9)"
       d="m 144.41888,272.17715 c -3.97483,28.31646 -9.64895,55.42857 27.08617,54.71428"
       id="path4924-2-7"
       inkscape:connector-curvature="0"
       sodipodi:nodetypes="cc" />
    <path
       style="fill:none;fill-opacity:1;fill-rule:evenodd;stroke:#859900;stroke-width:4.4000001;stroke-linecap:butt;stroke-linejoin:miter;stroke-miterlimit:4;stroke-dasharray:none;stroke-opacity:1;marker-end:url(#Arrow1Send-2-93)"
       d="m 208.46471,364.55412 c -3.97482,28.31646 -9.64895,55.42857 27.08617,54.71428"
       id="path4924-2-2"
       inkscape:connector-curvature="0"
       sodipodi:nodetypes="cc" />
  </g>
</svg>
